<?xml version="1.0" encoding="utf-8" ?>
<svg baseProfile="tiny" height="38.25" version="1.2" width="180" xmlns="http://www.w3.org/2000/svg" xmlns:ev="http://www.w3.org/2001/xml-events" xmlns:xlink="http://www.w3.org/1999/xlink"><defs /><rect fill="rgb(255,255,255)" height="38.25" stroke="rgb(0,0,0)" stroke-width="0.35" width="180" x="0" y="0" /><line stroke="rgb(0,0,0)" stroke-width="0.35" x1="54" x2="54" y1="0" y2="38.25" /><line stroke="rgb(0,0,0)" stroke-width="0.35" x1="98" x2="98" y1="0" y2="38.25" /><line stroke="rgb(0,0,0)" stroke-width="0.35" x1="54" x2="180" y1="21.25" y2="21.25" /><line stroke="rgb(0,0,0)" stroke-width="0.35" x1="54" x2="180" y1="34.0" y2="34.0" /><line stroke="rgb(0,0,0)" stroke-width="0.18" x1="0" x2="54" y1="4.25" y2="4.25" /><line stroke="rgb(0,0,0)" stroke-width="0.18" x1="0" x2="54" y1="8.5" y2="8.5" /><line stroke="rgb(0,0,0)" stroke-width="0.18" x1="0" x2="54" y1="12.75" y2="12.75" /><line stroke="rgb(0,0,0)" stroke-width="0.18" x1="0" x2="54" y1="17.0" y2="17.0" /><line stroke="rgb(0,0,0)" stroke-width="0.18" x1="0" x2="54" y1="21.25" y2="21.25" /><line stroke="rgb(0,0,0)" stroke-width="0.18" x1="0" x2="54" y1="25.5" y2="25.5" /><line stroke="rgb(0,0,0)" stroke-width="0.18" x1="0" x2="54" y1="29.75" y2="29.75" /><line stroke="rgb(0,0,0)" stroke-width="0.18" x1="0" x2="54" y1="34.0" y2="34.0" /><line stroke="rgb(0,0,0)" stroke-width="0.18" x1="0" x2="0" y1="0" y2="38.25" /><text font-family="Arial" font-size="2.8" x="0.5" y="37.15">Rev</text><text font-family="Arial" font-size="2.8" x="0.5" y="3.15">r8</text><text font-family="Arial" font-size="2.8" x="0.5" y="7.4">r7</text><text font-family="Arial" font-size="2.8" x="0.5" y="11.65">r6</text><text font-family="Arial" font-size="2.8" x="0.5" y="15.9">r5</text><text font-family="Arial" font-size="2.8" x="0.5" y="20.15">r4</text><text font-family="Arial" font-size="2.8" x="0.5" y="24.4">r3</text><text font-family="Arial" font-size="2.8" x="0.5" y="28.65">r2</text><text font-family="Arial" font-size="2.8" x="0.5" y="32.9">r1</text><line stroke="rgb(0,0,0)" stroke-width="0.18" x1="6" x2="6" y1="0" y2="38.25" /><text font-family="Arial" font-size="2.8" x="6.5" y="37.15">Changelog</text><text font-family="Arial" font-size="2.8" x="6.5" y="3.15">rc8</text><text font-family="Arial" font-size="2.8" x="6.5" y="7.4">rc7</text><text font-family="Arial" font-size="2.8" x="6.5" y="11.65">rc6</text><text font-family="Arial" font-size="2.8" x="6.5" y="15.9">rc5</text><text font-family="Arial" font-size="2.8" x="6.5" y="20.15">rc4</text><text font-family="Arial" font-size="2.8" x="6.5" y="24.4">rc3</text><text font-family="Arial" font-size="2.8" x="6.5" y="28.65">rc2</text><text font-family="Arial" font-size="2.8" x="6.5" y="32.9">rc1</text><line stroke="rgb(0,0,0)" stroke-width="0.18" x1="28" x2="28" y1="0" y2="38.25" /><text font-family="Arial" font-size="2.8" x="28.5" y="37.15">Date</text><text font-family="Arial" font-size="2.8" x="28.5" y="3.15">rd8</text><text font-family="Arial" font-size="2.8" x="28.5" y="7.4">rd7</text><text font-family="Arial" font-size="2.8" x="28.5" y="11.65">rd6</text><text font-family="Arial" font-size="2.8" x="28.5" y="15.9">rd5</text><text font-family="Arial" font-size="2.8" x="28.5" y="20.15">rd4</text><text font-family="Arial" font-size="2.8" x="28.5" y="24.4">rd3</text><text font-family="Arial" font-size="2.8" x="28.5" y="28.65">rd2</text><text font-family="Arial" font-size="2.8" x="28.5" y="32.9">rd1</text><line stroke="rgb(0,0,0)" stroke-width="0.18" x1="44" x2="44" y1="0" y2="38.25" /><text font-family="Arial" font-size="2.8" x="44.5" y="37.15">Name</text><text font-family="Arial" font-size="2.8" x="44.5" y="3.15">rn8</text><text font-family="Arial" font-size="2.8" x="44.5" y="7.4">rn7</text><text font-family="Arial" font-size="2.8" x="44.5" y="11.65">rn6</text><text font-family="Arial" font-size="2.8" x="44.5" y="15.9">rn5</text><text font-family="Arial" font-size="2.8" x="44.5" y="20.15">rn4</text><text font-family="Arial" font-size="2.8" x="44.5" y="24.4">rn3</text><text font-family="Arial" font-size="2.8" x="44.5" y="28.65">rn2</text><text font-family="Arial" font-size="2.8" x="44.5" y="32.9">rn1</text><line stroke="rgb(0,0,0)" stroke-width="0.18" x1="54" x2="98" y1="4.25" y2="4.25" /><line stroke="rgb(0,0,0)" stroke-width="0.18" x1="54" x2="98" y1="8.5" y2="8.5" /><line stroke="rgb(0,0,0)" stroke-width="0.18" x1="54" x2="98" y1="12.75" y2="12.75" /><line stroke="rgb(0,0,0)" stroke-width="0.18" x1="54" x2="98" y1="17.0" y2="17.0" /><line stroke="rgb(0,0,0)" stroke-width="0.18" x1="72" x2="72" y1="0" y2="17.0" /><line stroke="rgb(0,0,0)" stroke-width="0.18" x1="88" x2="88" y1="0" y2="21.25" /><text font-family="Arial" font-size="2.8" x="72.5" y="3.15">Date</text><text font-family="Arial" font-size="2.8" x="88.5" y="3.15">Name</text><text font-family="Arial" font-size="2.8" x="54.5" y="7.4">Designed</text><text font-family="Arial" font-size="2.8" x="72.5" y="7.4">cd0</text><text font-family="Arial" font-size="2.8" x="88.5" y="7.4">cn0</text><text font-family="Arial" font-size="2.8" x="54.5" y="11.65">Approved</text><text font-family="Arial" font-size="2.8" x="72.5" y="11.65">cd1</text><text font-family="Arial" font-size="2.8" x="88.5" y="11.65">cn1</text><text font-family="Arial" font-size="2.8" x="54.5" y="15.9">Printed</text><text font-family="Arial" font-size="2.8" x="72.5" y="15.9">cd2</text><text font-family="Arial" font-size="2.8" x="88.5" y="15.9">cn2</text><text font-family="Arial" font-size="2.8" x="54.5" y="20.15">???</text><text font-family="Arial" font-size="2.8" x="88.5" y="20.15">!!!</text><line stroke="rgb(0,0,0)" stroke-width="0.35" x1="167.25" x2="167.25" y1="21.25" y2="34.0" /><line stroke="rgb(0,0,0)" stroke-width="0.35" x1="167.25" x2="180" y1="29.75" y2="29.75" /><text font-family="Arial" font-size="2.8" x="98.5" y="3.15">Part Name</text><text font-family="Arial" font-size="5.6" x="99.0" y="8.5" /><text font-family="Arial" font-size="5.6" x="99.0" y="14.1">Lorem ipsum</text><text font-family="Arial" font-size="5.6" x="99.0" y="19.7" /><text font-family="Arial" font-size="2.8" x="98.5" y="24.4">Part No.</text><text font-family="Arial" font-size="5.6" text-anchor="middle" x="132.625" y="29.75">123-456-789</text><text font-family="Arial" font-size="2.8" x="167.75" y="24.4">Sheet</text><text font-family="Arial" font-size="4.0" text-anchor="middle" x="173.625" y="28.65">1</text><text font-family="Arial" font-size="2.8" x="167.75" y="32.9">N sheets</text><text font-family="Arial" font-size="2.8" x="54.5" y="37.15">XXX</text><text font-family="Arial" font-size="2.8" x="98.5" y="37.15">YYY</text></svg>